<svg width="97" height="28" viewBox="0 0 97 28" fill="none" xmlns="http://www.w3.org/2000/svg">
<path d="M87.5416 26.996C85.4645 26.996 83.647 26.5214 82.0891 25.5722C80.5313 24.623 79.3196 23.3365 78.4541 21.7128C77.5887 20.0892 77.1559 18.2906 77.1559 16.3173C77.1559 14.2689 77.5887 12.4579 78.4541 10.8842C79.3443 9.28551 80.5436 8.02403 82.052 7.09979C83.5851 6.17555 85.2914 5.71342 87.1707 5.71342C88.7533 5.71342 90.138 5.97571 91.325 6.50028C92.5366 7.02485 93.5628 7.74926 94.4036 8.6735C95.2443 9.59775 95.8872 10.6594 96.3324 11.8584C96.7775 13.0324 97 14.3064 97 15.6803C97 16.03 96.9753 16.3922 96.9258 16.7669C96.8865 17.3624 96.3413 17.7411 95.7431 17.7411H81.1618V13.9942H93.9956L91.6959 15.7552C91.9184 14.6062 91.8566 13.582 91.5104 12.6827C91.189 11.7835 90.6449 11.0715 89.8784 10.547C89.1366 10.0224 88.234 9.76012 87.1707 9.76012C86.1568 9.76012 85.2543 10.0224 84.463 10.547C83.6717 11.0466 83.0659 11.796 82.6455 12.7951C82.2498 13.7693 82.1015 14.9559 82.2004 16.3547C82.1015 17.6037 82.2622 18.7153 82.6826 19.6895C83.1277 20.6387 83.7706 21.3756 84.6114 21.9002C85.4768 22.4248 86.4659 22.687 87.5787 22.687C88.6915 22.687 89.6311 22.4497 90.3977 21.9751C90.5332 21.8938 90.6637 21.8078 90.7891 21.7169C91.798 20.9861 93.1312 20.4998 94.2479 21.0532C95.3402 21.5945 95.8549 22.9197 95.0655 23.8471C94.8427 24.1088 94.5974 24.3591 94.3294 24.598C93.4886 25.3474 92.4872 25.9344 91.325 26.359C90.1875 26.7837 88.9264 26.996 87.5416 26.996Z" fill="#E5E5EA"/>
<path d="M71.6596 27.088C69.2938 27.088 67.4552 26.4366 66.1437 25.1338C64.858 23.8049 64.2151 21.9419 64.2151 19.5448V10.1645H60.5893V5.97644C60.5893 5.76394 60.762 5.59168 60.975 5.59168C62.0036 5.59168 62.8008 5.31809 63.3665 4.77091C63.9322 4.22373 64.2151 3.42902 64.2151 2.38677V0.745229H69.2681V5.59168H74.0897V7.18362C74.0897 8.82993 72.7517 10.1645 71.1013 10.1645H69.2681V19.2712C69.2681 19.9747 69.3838 20.574 69.6153 21.069C69.8724 21.5641 70.2581 21.9419 70.7724 22.2025C71.3125 22.463 71.9939 22.5933 72.8168 22.5933C72.9968 22.5933 73.2025 22.5803 73.4339 22.5542C73.8249 22.5146 74.1668 22.8193 74.1668 23.2113V25.6124C74.1668 26.3249 73.6423 26.9299 72.9325 27.0098C72.4696 27.062 72.0453 27.088 71.6596 27.088Z" fill="#E5E5EA"/>
<path d="M22.5298 6.95547L14.4728 17.2247L11.4888 13.6267L15.7391 8.11824C16.3048 7.38506 17.1798 6.95547 18.1073 6.95547L22.5298 6.95547Z" fill="white"/>
<path d="M8.08341 16.9638L0 6.95547H4.79684C5.69274 6.95547 6.54139 7.35641 7.10898 8.04783L22.8282 27.1963H18.018C17.1297 27.1963 16.2875 26.8021 15.7197 26.1207L11.0773 20.5489L6.81016 26.0413C6.24413 26.7699 5.37207 27.1963 4.44803 27.1963H0L8.08341 16.9638Z" fill="#E5E5EA"/>
<path d="M52.8264 25.0993V6.84582H53.6164C55.817 6.84582 57.6009 8.62529 57.6009 10.8204V25.0993C57.6009 26.1969 56.709 27.0866 55.6087 27.0866H54.8187C53.7184 27.0866 52.8264 26.1969 52.8264 25.0993Z" fill="#E5E5EA"/>
<path d="M52.8264 1.98728C52.8264 0.889734 53.7184 0 54.8187 0H55.6087C56.709 0 57.6009 0.889734 57.6009 1.98728V2.77526C57.6009 3.8728 56.709 4.76254 55.6087 4.76254H54.8187C53.7184 4.76254 52.8264 3.8728 52.8264 2.77526V1.98728Z" fill="#E5E5EA"/>
<path d="M37.1706 27.1963C36.0086 27.1963 34.952 26.5245 34.4615 25.4738L25.8159 6.95547H30.1602C31.3555 6.95547 32.4358 7.66595 32.9068 8.7618L38.9749 22.8802C38.462 21.6868 38.4333 20.3414 38.895 19.1273L42.7896 8.88462C43.2312 7.7234 44.3465 6.95547 45.5916 6.95547H49.8377L41.1921 25.4738C40.7016 26.5245 39.645 27.1963 38.4831 27.1963H37.1706Z" fill="#E5E5EA"/>
</svg>
